<svg xmlns="http://www.w3.org/2000/svg" viewBox="0 0 250 250" width="100" height="100">
  <path fill="#fff" d="M125,0C56.25,0,0,56.25,0,125c0,55.69,36.19,102.2,85.9,118.94c6.3,1.16,8.64-2.73,8.64-6.06c0-3-0.11-10.98-0.17-21.58c-34.62,7.53-41.92-16.67-41.92-16.67c-5.63-14.34-13.76-18.19-13.76-18.19c-11.24-7.69,0.85-7.53,0.85-7.53c12.46,0.87,19.06,12.79,19.06,12.79c11.07,18.85,28.97,13.43,36.05,10.26c1.11-8.02,4.32-13.43,7.89-16.52c-28.57-3.26-58.68-14.28-58.68-63.65c0-14.02,5.01-25.45,13.2-34.47c-1.32-3.26-5.73-16.32,1.27-34.04c0,0,10.69-3.42,35.07,13.03c10.2-2.85,21.18-4.28,32.03-4.28c10.85,0,21.83,1.43,32.04,4.28c24.36-16.45,35.02-13.03,35.02-13.03c7.02,17.72,2.6,30.78,1.28,34.04c8.18,9.02,13.2,20.45,13.2,34.47c0,49.42-30.15,60.32-58.73,63.55c4.46,3.89,8.42,11.54,8.42,23.3c0,16.92-0.15,30.54-0.15,34.65c0,3.39,2.36,7.34,8.68,6.09C213.81,227.2,250,180.69,250,125C250,56.25,193.75,0,125,0z"/>
</svg>
