<svg version="1.2" baseProfile="tiny-ps" xmlns="http://www.w3.org/2000/svg" viewBox="0 0 1528 1496" width="1528" height="1496">
	<title>SKIL_BIG copy-svg</title>
	<style>
		tspan { white-space:pre }
		.shp0 { fill: #ffffff } 
	</style>
	<g id="Logo">
		<path id="Layer" fill-rule="evenodd" class="shp0" d="M0.59 66.88C0.59 57.28 0.59 47.74 5.4 33.33C24.54 4.58 62.83 -9.83 91.59 9.38L628.07 316.16C637.68 320.96 647.22 330.5 652.02 340.11C671.16 368.86 656.82 407.21 628.07 426.36L96.39 733.13C86.78 737.93 72.44 742.74 62.83 742.74C29.34 742.74 0.59 713.99 0.59 680.43L0.59 66.88ZM867.56 680.43C867.56 713.99 896.31 742.74 929.87 742.74C939.41 742.74 953.82 737.93 963.36 733.13L1495.04 426.36C1523.79 407.21 1538.13 368.86 1518.99 340.11C1514.18 330.5 1504.64 320.96 1495.04 316.16L958.55 9.38C929.87 -9.83 891.51 4.58 872.36 33.33C867.56 47.74 862.76 57.28 867.56 66.88L867.56 680.43ZM436.48 1432.93C436.48 1466.49 465.23 1495.3 498.72 1495.3C508.32 1495.3 522.67 1490.5 532.27 1485.7L1063.95 1178.92C1092.71 1159.78 1107.05 1121.42 1087.9 1092.67C1083.1 1083.07 1073.56 1073.46 1063.95 1068.66L532.27 761.88C503.52 742.74 465.23 752.34 446.08 781.09C436.48 795.43 431.67 805.04 436.48 819.45L436.48 1432.93Z" />
	</g>
</svg>